P2
70 80
255

255 255 255 255 255 255 255 255 255 255 255 255 255 255 255 255 255
255 255 255 255 255 255 255 255 255 255 255 255 255 255 255 255 255
255 255 255 255 255 255 255 255 255 255 255 255 255 255 255 255 255
255 255 255 255 255 255 255 255 255 255 255 255 255 255 255 255 255
255 255
255 255 255 255 255 255 255 255 255 255 255 255 255 255 255 255 255
255 255 255 255 255 255 255 255 255 255 255 255 255 255 255 255 255
255 255 255 255 255 255 255 255 255 255 255 255 255 255 255 255 255
255 255 255 255 255 255 255 255 255 255 255 255 255 255 255 255 255
255 255
255 255 255 255 255 255 255 255 255 255 255 255 255 255 255 255 255
255 255 255 255 255 255 255 255 255 255 255 255 255 255 255 255 255
255 255 255 255 255 255 255 255 255 255 255 255 255 255 255 255 255
255 255 255 255 255 255 255 255 255 255 255 255 255 255 255 255 255
255 255
255 255 255 255 255 255 255 255 255 255 255 255 255 255 255 255 255
255 255 255 255 255 255 255 255 255 255 255 255 255 255 255 255 255
255 255 255 255 255 255 255 255 255 255 255 255 255 255 255 255 255
255 255 255 255 255 255 255 255 255 255 255 255 255 255 255 255 255
255 255
255 255 255 255 255 255 255 255 255 255 255 255 255 255 255 255 255
255 255 255 255 255 255 255 255 255 255 255 255 255 255 255 255 255
255 255 255 255 255 255 255 255 255 255 255 255 255 255 255 255 255
255 255 255 255 255 255 255 255 255 255 255 255 255 255 255 255 255
255 255
255 255 255 255 255 255 255 255 255 255 255 255 255 255 255 255 255
255 255 255 255 255 255 255 255 255 255 255 255 255 255 255 255 255
255 255 255 255 255 255 255 255 255 255 255 255 255 255 255 255 255
255 255 255 255 255 255 255 255 255 255 255 255 255 255 255 255 255
255 255
255 255 255 255 255 255 255 255 255 255 255 255 255 255 255 255 255
255 255 255 255 255 255 255 255 255 255 255 255 255 255 255 255 255
255 255 255 255 255 255 255 255 255 255 255 255 255 255 255 255 255
255 255 255 255 255 255 255 255 255 255 255 255 255 255 255 255 255
255 255
255 255 255 255 255 255 255 255 255 255 255 255 255 255 255 255 255
255 255 255 255 255 255 255 255 255 255 255 255 255 255 255 255 255
255 255 255 255 255 255 255 255 255 255 255 255 255 255 255 255 255
255 255 255 255 255 255 255 255 255 255 255 255 255 255 255 255 255
255 255
255 255 255 255 255 255 255 255 255 255 255 255 255 255 255 255 255
255 255 255 255 255 255 255 255 255 255 255 255 255 255 255 255 255
255 255 255 255 255 255 255 255 255 255 255 255 255 255 255 255 255
255 255 255 255 255 255 255 255 255 255 255 255 255 255 255 255 255
255 255
255 255 255 255 255 255 255 255 255 255 255 255 255 255 255 255 255
255 255 255 255 255 255 255 255 255 255 255 255 255 255 255 255 255
255 255 255 255 255 255 255 255 255 255 255 255 255 255 255 255 255
255 255 255 255 255 255 255 255 255 255 255 255 255 255 255 255 255
255 255
255 255 255 255 255 255 255 255 255 255 255 255 255 255 255 255 255
255 255 255 255 255 255 255 255 255 255 255 255 255 255 255 255 255
255 255 255 255 255 255 255 255 255 255 255 255 255 255 255 255 255
255 255 255 255 255 255 255 255 255 255 255 255 255 255 255 255 255
255 255
255 255 255 255 255 255 255 255 255 255 255 255 255 255 255 255 255
255 255 255 255 255 255 255 255 255 255 255 255 255 255 255 255 255
255 255 255 255 255 255 255 255 255 255 255 255 255 255 255 255 255
255 255 255 255 255 255 255 255 255 255 255 255 255 255 255 255 255
255 255
255 255 255 255 255 255 255 255 255 255 255 255 255 255 255 255 255
255 255 255 255 255 255 255 255 255 255 255 255 255 255 255 255 255
255 255 255 255 255 255 255 255 255 255 255 255 255 255 255 255 255
255 255 255 255 255 255 255 255 255 255 255 255 255 255 255 255 255
255 255
255 255 255 255 255 255 255 255 255 255 255 255 255 255 255 255 255
255 255 255 255 255 255 255 255 255 255 255 255 255 255 255 255 255
255 255 255 255 255 255 255 255 255 255 255 255 255 255 255 255 255
255 255 255 255 255 255 255 255 255 255 255 255 255 255 255 255 255
255 255
255 255 255 255 255 255 255 255 255 255 255 255 255 255 255 255 255
255 255 255 255 255 255 255 255 255 255 255 255 255 255 255 255 170
0 0 0 0 0 0 0 0 0 0 0 0 114 255 255 255 255
255 255 255 255 255 255 255 255 255 255 255 255 255 255 255 255 255
255 255
255 255 255 255 255 255 255 255 255 255 255 255 255 255 255 255 255
255 255 255 255 255 255 255 255 255 255 255 255 255 255 255 255 29
0 0 0 0 0 0 0 0 0 0 0 0 85 255 255 255 255
255 255 255 255 255 255 255 255 255 255 255 255 255 255 255 255 255
255 255
255 255 255 255 255 255 255 255 255 255 255 255 255 255 255 255 255
255 255 255 255 255 255 255 255 255 255 255 255 255 255 255 142 0
0 0 0 0 0 0 0 0 0 0 0 0 29 255 255 255 255
255 255 255 255 255 255 255 255 255 255 255 255 255 255 255 255 255
255 255
255 255 255 255 255 255 255 255 255 255 255 255 255 255 255 255 255
255 255 255 255 255 255 255 255 255 255 255 255 255 255 255 29 0
0 0 0 0 0 0 0 0 0 0 0 0 0 255 255 255 255
255 255 255 255 255 255 255 255 255 255 255 255 255 255 255 255 255
255 255
255 255 255 255 255 255 255 255 255 255 255 255 255 255 255 255 255
255 255 255 255 255 255 255 255 255 255 255 255 255 255 142 0 0
0 0 0 0 0 0 0 0 0 0 0 0 0 199 255 255 255
255 255 255 255 255 255 255 255 255 255 255 255 255 255 255 255 255
255 255
255 255 255 255 255 255 255 255 255 255 255 255 255 255 255 255 255
255 255 255 255 255 255 255 255 255 255 255 255 255 255 29 0 0
0 0 0 0 0 0 0 0 0 0 0 0 0 170 255 255 255
255 255 255 255 255 255 255 255 255 255 255 255 255 255 255 255 255
255 255
255 255 255 255 255 255 255 255 255 255 255 255 255 255 255 255 255
255 255 255 255 255 255 255 255 255 255 255 255 255 142 0 0 0
0 0 0 0 0 0 0 0 0 0 0 0 0 142 255 255 255
255 255 255 255 255 255 255 255 255 255 255 255 255 255 255 255 255
255 255
255 255 255 255 255 255 255 255 255 255 255 255 255 255 255 255 255
255 255 255 255 255 255 255 255 255 255 255 255 255 29 0 0 0
0 0 0 0 0 0 0 0 0 0 0 0 0 85 255 255 255
255 255 255 255 255 255 255 255 255 255 255 255 255 255 255 255 255
255 255
255 255 255 255 255 255 255 255 255 255 255 255 255 255 255 255 255
255 255 255 255 255 255 255 255 255 255 255 255 114 0 0 0 0
0 0 0 0 0 0 0 0 0 0 0 0 0 57 255 255 255
255 255 255 255 255 255 255 255 255 255 255 255 255 255 255 255 255
255 255
255 255 255 255 255 255 255 255 255 255 255 255 255 255 255 255 255
255 255 255 255 255 255 255 255 255 255 255 227 0 0 0 0 0
0 0 0 0 0 0 0 0 0 0 0 0 0 0 255 255 255
255 255 255 255 255 255 255 255 255 255 255 255 255 255 255 255 255
255 255
255 255 255 255 255 255 255 255 255 255 255 255 255 255 255 255 255
255 255 255 255 255 255 255 255 255 255 255 114 0 0 0 0 0
0 0 0 0 0 0 0 0 0 0 0 0 0 0 227 255 255
255 255 255 255 255 255 255 255 255 255 255 255 255 255 255 255 255
255 255
255 255 255 255 255 255 255 255 255 255 255 255 255 255 255 255 255
255 255 255 255 255 255 255 255 255 255 227 0 0 0 0 0 0
0 0 0 0 114 0 0 0 0 0 0 0 0 0 170 255 255
255 255 255 255 255 255 255 255 255 255 255 255 255 255 255 255 255
255 255
255 255 255 255 255 255 255 255 255 255 255 255 255 255 255 255 255
255 255 255 255 255 255 255 255 255 255 114 0 0 0 0 0 0
0 0 0 29 255 0 0 0 0 0 0 0 0 0 170 255 255
255 255 255 255 255 255 255 255 255 255 255 255 255 255 255 255 255
255 255
255 255 255 255 255 255 255 255 255 255 255 255 255 255 255 255 255
255 255 255 255 255 255 255 255 255 227 0 0 0 0 0 0 0
0 0 0 142 255 29 0 0 0 0 0 0 0 0 85 255 255
255 255 255 255 255 255 255 255 255 255 255 255 255 255 255 255 255
255 255
255 255 255 255 255 255 255 255 255 255 255 255 255 255 255 255 255
255 255 255 255 255 255 255 255 255 114 0 0 0 0 0 0 0
0 0 29 255 255 85 0 0 0 0 0 0 0 0 85 255 255
255 255 255 255 255 255 255 255 255 255 255 255 255 255 255 255 255
255 255
255 255 255 255 255 255 255 255 255 255 255 255 255 255 255 255 255
255 255 255 255 255 255 255 255 227 0 0 0 0 0 0 0 0
0 0 142 255 255 85 0 0 0 0 0 0 0 0 0 255 255
255 255 255 255 255 255 255 255 255 255 255 255 255 255 255 255 255
255 255
255 255 255 255 255 255 255 255 255 255 255 255 255 255 255 255 255
255 255 255 255 255 255 255 255 85 0 0 0 0 0 0 0 0
0 29 255 255 255 142 0 0 0 0 0 0 0 0 0 255 255
255 255 255 255 255 255 255 255 255 255 255 255 255 255 255 255 255
255 255
255 255 255 255 255 255 255 255 255 255 255 255 255 255 255 255 255
255 255 255 255 255 255 255 199 0 0 0 0 0 0 0 0 0
0 142 255 255 255 170 0 0 0 0 0 0 0 0 0 170 255
255 255 255 255 255 255 255 255 255 255 255 255 255 255 255 255 255
255 255
255 255 255 255 255 255 255 255 255 255 255 255 255 255 255 255 255
255 255 255 255 255 255 255 57 0 0 0 0 0 0 0 0 0
29 255 255 255 255 199 0 0 0 0 0 0 0 0 0 170 255
255 255 255 255 255 255 255 255 255 255 255 255 255 255 255 255 255
255 255
255 255 255 255 255 255 255 255 255 255 255 255 255 255 255 255 255
255 255 255 255 255 255 199 0 0 0 0 0 0 0 0 0 0
142 255 255 255 255 255 0 0 0 0 0 0 0 0 0 85 255
255 255 255 255 255 255 255 255 255 255 255 255 255 255 255 255 255
255 255
255 255 255 255 255 255 255 255 255 255 255 255 255 255 255 255 255
255 255 255 255 255 255 57 0 0 0 0 0 0 0 0 0 0
255 255 255 255 255 255 0 0 0 0 0 0 0 0 0 85 255
255 255 255 255 255 255 255 255 255 255 255 255 255 255 255 255 255
255 255
255 255 255 255 255 255 255 255 255 255 255 255 255 255 255 255 255
255 255 255 255 255 199 0 0 0 0 0 0 0 0 0 0 114
255 255 255 255 255 255 57 0 0 0 0 0 0 0 0 29 255
255 255 255 255 255 255 255 255 255 255 255 255 255 255 255 255 255
255 255
255 255 255 255 255 255 255 255 255 255 255 255 255 255 255 255 255
255 255 255 255 255 57 0 0 0 0 0 0 0 0 0 0 227
255 255 255 255 255 255 85 0 0 0 0 0 0 0 0 0 255
255 255 255 255 255 255 255 255 255 255 255 255 255 255 255 255 255
255 255
255 255 255 255 255 255 255 255 255 255 255 255 255 255 255 255 255
255 255 255 255 199 0 0 0 0 0 0 0 0 0 0 114 255
255 255 255 255 255 255 114 0 0 0 0 0 0 0 0 0 199
255 255 255 255 255 255 255 255 255 255 255 255 255 255 255 255 255
255 255
255 255 255 255 255 255 255 255 255 255 255 255 255 255 255 255 255
255 255 255 255 29 0 0 0 0 0 0 0 0 0 0 227 255
255 255 255 255 255 255 170 0 0 0 0 0 0 0 0 0 170
255 255 255 255 255 255 255 255 255 255 255 255 255 255 255 255 255
255 255
255 255 255 255 255 255 255 255 255 255 255 255 255 255 255 255 255
255 255 255 142 0 0 0 0 0 0 0 0 0 0 114 255 255
255 255 255 255 255 255 170 0 0 0 0 0 0 0 0 0 114
255 255 255 255 255 255 255 255 255 255 255 255 255 255 255 255 255
255 255
255 255 255 255 255 255 255 255 255 255 255 255 255 255 255 255 255
255 255 255 29 0 0 0 0 0 0 0 0 0 0 227 255 255
255 255 255 255 255 255 227 0 0 0 0 0 0 0 0 0 85
255 255 255 255 255 255 255 255 255 255 255 255 255 255 255 255 255
255 255
255 255 255 255 255 255 255 255 255 255 255 255 255 255 255 255 255
255 255 142 0 0 0 0 0 0 0 0 0 0 114 255 255 255
255 255 255 255 255 255 255 0 0 0 0 0 0 0 0 0 57
255 255 255 255 255 255 255 255 255 255 255 255 255 255 255 255 255
255 255
255 255 255 255 255 255 255 255 255 255 255 255 255 255 255 255 255
255 255 29 0 0 0 0 0 0 0 0 0 0 227 255 255 255
255 255 255 255 255 255 255 29 0 0 0 0 0 0 0 0 0
255 255 255 255 255 255 255 255 255 255 255 255 255 255 255 255 255
255 255
255 255 255 255 255 255 255 255 255 255 255 255 255 255 255 255 255
255 142 0 0 0 0 0 0 0 0 0 0 114 255 255 255 255
255 255 255 255 255 255 255 85 0 0 0 0 0 0 0 0 0
227 255 255 255 255 255 255 255 255 255 255 255 255 255 255 255 255
255 255
255 255 255 255 255 255 255 255 255 255 255 255 255 255 255 255 255
255 29 0 0 0 0 0 0 0 0 0 0 227 255 255 255 255
255 255 255 255 255 255 255 85 0 0 0 0 0 0 0 0 0
170 255 255 255 255 255 255 255 255 255 255 255 255 255 255 255 255
255 255
255 255 255 255 255 255 255 255 255 255 255 255 255 255 255 255 255
142 0 0 0 0 0 0 0 0 0 0 114 255 255 255 255 255
255 255 255 255 255 255 255 170 0 0 0 0 0 0 0 0 0
142 255 255 255 255 255 255 255 255 255 255 255 255 255 255 255 255
255 255
255 255 255 255 255 255 255 255 255 255 255 255 255 255 255 255 227
0 0 0 0 0 0 0 0 0 0 0 114 170 170 170 170 170
170 170 170 170 170 170 170 114 0 0 0 0 0 0 0 0 0
85 255 255 255 255 255 255 255 255 255 255 255 255 255 255 255 255
255 255
255 255 255 255 255 255 255 255 255 255 255 255 255 255 255 255 114
0 0 0 0 0 0 0 0 0 0 0 0 0 0 0 0 0
0 0 0 0 0 0 0 0 0 0 0 0 0 0 0 0 0
57 255 255 255 255 255 255 255 255 255 255 255 255 255 255 255 255
255 255
255 255 255 255 255 255 255 255 255 255 255 255 255 255 255 227 0
0 0 0 0 0 0 0 0 0 0 0 0 0 0 0 0 0
0 0 0 0 0 0 0 0 0 0 0 0 0 0 0 0 0
0 255 255 255 255 255 255 255 255 255 255 255 255 255 255 255 255
255 255
255 255 255 255 255 255 255 255 255 255 255 255 255 255 255 114 0
0 0 0 0 0 0 0 0 0 0 0 0 0 0 0 0 0
0 0 0 0 0 0 0 0 0 0 0 0 0 0 0 0 0
0 255 255 255 255 255 255 255 255 255 255 255 255 255 255 255 255
255 255
255 255 255 255 255 255 255 255 255 255 255 255 255 255 227 0 0
0 0 0 0 0 0 0 0 0 0 0 0 0 0 0 0 0
0 0 0 0 0 0 0 0 0 0 0 0 0 0 0 0 0
0 170 255 255 255 255 255 255 255 255 255 255 255 255 255 255 255
255 255
255 255 255 255 255 255 255 255 255 255 255 255 255 255 114 0 0
0 0 0 0 0 0 0 0 0 0 0 0 0 0 0 0 0
0 0 0 0 0 0 0 0 0 0 0 0 0 0 0 0 0
0 170 255 255 255 255 255 255 255 255 255 255 255 255 255 255 255
255 255
255 255 255 255 255 255 255 255 255 255 255 255 255 227 0 0 0
0 0 0 0 0 0 0 0 0 0 0 0 0 0 0 0 0
0 0 0 0 0 0 0 0 0 0 0 0 0 0 0 0 0
0 85 255 255 255 255 255 255 255 255 255 255 255 255 255 255 255
255 255
255 255 255 255 255 255 255 255 255 255 255 255 255 114 0 0 0
0 0 0 0 0 0 0 0 0 0 0 0 0 0 0 0 0
0 0 0 0 0 0 0 0 0 0 0 0 0 0 0 0 0
0 85 255 255 255 255 255 255 255 255 255 255 255 255 255 255 255
255 255
255 255 255 255 255 255 255 255 255 255 255 255 199 0 0 0 0
0 0 0 0 0 0 0 0 0 0 0 0 0 0 0 0 0
0 0 0 0 0 0 0 0 0 0 0 0 0 0 0 0 0
0 0 255 255 255 255 255 255 255 255 255 255 255 255 255 255 255
255 255
255 255 255 255 255 255 255 255 255 255 255 255 57 0 0 0 0
0 0 0 0 0 0 57 85 85 85 85 85 85 85 85 85 85
85 85 85 85 85 85 85 85 57 0 0 0 0 0 0 0 0
0 0 255 255 255 255 255 255 255 255 255 255 255 255 255 255 255
255 255
255 255 255 255 255 255 255 255 255 255 255 255 0 0 0 0 0
0 0 0 0 0 0 227 255 255 255 255 255 255 255 255 255 255
255 255 255 255 255 255 255 255 199 0 0 0 0 0 0 0 0
0 0 199 255 255 255 255 255 255 255 255 255 255 255 255 255 255
255 255
255 255 255 255 255 255 255 255 255 255 255 255 0 0 0 0 0
0 0 0 0 0 114 255 255 255 255 255 255 255 255 255 255 255
255 255 255 255 255 255 255 255 255 0 0 0 0 0 0 0 0
0 0 170 255 255 255 255 255 255 255 255 255 255 255 255 255 255
255 255
255 255 255 255 255 255 255 255 255 255 255 255 0 0 0 0 0
0 0 0 0 0 227 255 255 255 255 255 255 255 255 255 255 255
255 255 255 255 255 255 255 255 255 0 0 0 0 0 0 0 0
0 0 114 255 255 255 255 255 255 255 255 255 255 255 255 255 255
255 255
255 255 255 255 255 255 255 255 255 255 255 255 0 0 0 0 0
0 0 0 0 114 255 255 255 255 255 255 255 255 255 255 255 255
255 255 255 255 255 255 255 255 255 85 0 0 0 0 0 0 0
0 0 85 255 255 255 255 255 255 255 255 255 255 255 255 255 255
255 255
255 255 255 255 255 255 255 255 255 255 255 255 0 0 0 0 0
0 0 0 0 227 255 255 255 255 255 255 255 255 255 255 255 255
255 255 255 255 255 255 255 255 255 85 0 0 0 0 0 0 0
0 0 29 255 255 255 255 255 255 255 255 255 255 255 255 255 255
255 255
255 255 255 255 255 255 255 255 255 255 255 255 0 0 0 0 0
0 0 0 114 255 255 255 255 255 255 255 255 255 255 255 255 255
255 255 255 255 255 255 255 255 255 142 0 0 0 0 0 0 0
0 0 0 255 255 255 255 255 255 255 255 255 255 255 255 255 255
255 255
255 255 255 255 255 255 255 255 255 255 255 255 0 0 0 0 0
0 0 0 227 255 255 255 255 255 255 255 255 255 255 255 255 255
255 255 255 255 255 255 255 255 255 170 0 0 0 0 0 0 0
0 0 0 227 255 255 255 255 255 255 255 255 255 255 255 255 255
255 255
255 255 255 255 255 255 255 255 255 255 255 255 0 0 0 0 0
0 0 114 255 255 255 255 255 255 255 255 255 255 255 255 255 255
255 255 255 255 255 255 255 255 255 170 0 0 0 0 0 0 0
0 0 0 170 255 255 255 255 255 255 255 255 255 255 255 255 255
255 255
255 255 255 255 255 255 255 255 255 255 255 255 0 0 0 0 0
0 0 227 255 255 255 255 255 255 255 255 255 255 255 255 255 255
255 255 255 255 255 255 255 255 255 255 0 0 0 0 0 0 0
0 0 0 142 255 255 255 255 255 255 255 255 255 255 255 255 255
255 255
255 255 255 255 255 255 255 255 255 255 255 255 85 85 85 85 85
85 142 255 255 255 255 255 255 255 255 255 255 255 255 255 255 255
255 255 255 255 255 255 255 255 255 255 85 85 85 85 85 85 85
85 85 85 142 255 255 255 255 255 255 255 255 255 255 255 255 255
255 255
255 255 255 255 255 255 255 255 255 255 255 255 255 255 255 255 255
255 255 255 255 255 255 255 255 255 255 255 255 255 255 255 255 255
255 255 255 255 255 255 255 255 255 255 255 255 255 255 255 255 255
255 255 255 255 255 255 255 255 255 255 255 255 255 255 255 255 255
255 255
255 255 255 255 255 255 255 255 255 255 255 255 255 255 255 255 255
255 255 255 255 255 255 255 255 255 255 255 255 255 255 255 255 255
255 255 255 255 255 255 255 255 255 255 255 255 255 255 255 255 255
255 255 255 255 255 255 255 255 255 255 255 255 255 255 255 255 255
255 255
255 255 255 255 255 255 255 255 255 255 255 255 255 255 255 255 255
255 255 255 255 255 255 255 255 255 255 255 255 255 255 255 255 255
255 255 255 255 255 255 255 255 255 255 255 255 255 255 255 255 255
255 255 255 255 255 255 255 255 255 255 255 255 255 255 255 255 255
255 255
255 255 255 255 255 255 255 255 255 255 255 255 255 255 255 255 255
255 255 255 255 255 255 255 255 255 255 255 255 255 255 255 255 255
255 255 255 255 255 255 255 255 255 255 255 255 255 255 255 255 255
255 255 255 255 255 255 255 255 255 255 255 255 255 255 255 255 255
255 255
255 255 255 255 255 255 255 255 255 255 255 255 255 255 255 255 255
255 255 255 255 255 255 255 255 255 255 255 255 255 255 255 255 255
255 255 255 255 255 255 255 255 255 255 255 255 255 255 255 255 255
255 255 255 255 255 255 255 255 255 255 255 255 255 255 255 255 255
255 255
255 255 255 255 255 255 255 255 255 255 255 255 255 255 255 255 255
255 255 255 255 255 255 255 255 255 255 255 255 255 255 255 255 255
255 255 255 255 255 255 255 255 255 255 255 255 255 255 255 255 255
255 255 255 255 255 255 255 255 255 255 255 255 255 255 255 255 255
255 255
255 255 255 255 255 255 255 255 255 255 255 255 255 255 255 255 255
255 255 255 255 255 255 255 255 255 255 255 255 255 255 255 255 255
255 255 255 255 255 255 255 255 255 255 255 255 255 255 255 255 255
255 255 255 255 255 255 255 255 255 255 255 255 255 255 255 255 255
255 255
255 255 255 255 255 255 255 255 255 255 255 255 255 255 255 255 255
255 255 255 255 255 255 255 255 255 255 255 255 255 255 255 255 255
255 255 255 255 255 255 255 255 255 255 255 255 255 255 255 255 255
255 255 255 255 255 255 255 255 255 255 255 255 255 255 255 255 255
255 255
255 255 255 255 255 255 255 255 255 255 255 255 255 255 255 255 255
255 255 255 255 255 255 255 255 255 255 255 255 255 255 255 255 255
255 255 255 255 255 255 255 255 255 255 255 255 255 255 255 255 255
255 255 255 255 255 255 255 255 255 255 255 255 255 255 255 255 255
255 255
255 255 255 255 255 255 255 255 255 255 255 255 255 255 255 255 255
255 255 255 255 255 255 255 255 255 255 255 255 255 255 255 255 255
255 255 255 255 255 255 255 255 255 255 255 255 255 255 255 255 255
255 255 255 255 255 255 255 255 255 255 255 255 255 255 255 255 255
255 255
255 255 255 255 255 255 255 255 255 255 255 255 255 255 255 255 255
255 255 255 255 255 255 255 255 255 255 255 255 255 255 255 255 255
255 255 255 255 255 255 255 255 255 255 255 255 255 255 255 255 255
255 255 255 255 255 255 255 255 255 255 255 255 255 255 255 255 255
255 255
255 255 255 255 255 255 255 255 255 255 255 255 255 255 255 255 255
255 255 255 255 255 255 255 255 255 255 255 255 255 255 255 255 255
255 255 255 255 255 255 255 255 255 255 255 255 255 255 255 255 255
255 255 255 255 255 255 255 255 255 255 255 255 255 255 255 255 255
255 255
255 255 255 255 255 255 255 255 255 255 255 255 255 255 255 255 255
255 255 255 255 255 255 255 255 255 255 255 255 255 255 255 255 255
255 255 255 255 255 255 255 255 255 255 255 255 255 255 255 255 255
255 255 255 255 255 255 255 255 255 255 255 255 255 255 255 255 255
255 255
255 255 255 255 255 255 255 255 255 255 255 255 255 255 255 255 255
255 255 255 255 255 255 255 255 255 255 255 255 255 255 255 255 255
255 255 255 255 255 255 255 255 255 255 255 255 255 255 255 255 255
255 255 255 255 255 255 255 255 255 255 255 255 255 255 255 255 255
255 255
