<?xml version="1.0" encoding="UTF-8" standalone="no"?>
<!-- Created with Inkscape (http://www.inkscape.org/) -->

<svg
   xmlns:dc="http://purl.org/dc/elements/1.1/"
   xmlns:cc="http://creativecommons.org/ns#"
   xmlns:rdf="http://www.w3.org/1999/02/22-rdf-syntax-ns#"
   xmlns:svg="http://www.w3.org/2000/svg"
   xmlns="http://www.w3.org/2000/svg"
   xmlns:sodipodi="http://sodipodi.sourceforge.net/DTD/sodipodi-0.dtd"
   xmlns:inkscape="http://www.inkscape.org/namespaces/inkscape"
   id="svg2"
   version="1.1"
   inkscape:version="0.48.4 r9939"
   width="386.4675"
   height="159.00874"
   xml:space="preserve"
   sodipodi:docname="joannopoulos__Photonic_crystals.pdf"><metadata
     id="metadata8"><rdf:RDF><cc:Work
         rdf:about=""><dc:format>image/svg+xml</dc:format><dc:type
           rdf:resource="http://purl.org/dc/dcmitype/StillImage" /><dc:title></dc:title></cc:Work></rdf:RDF></metadata><defs
     id="defs6"><clipPath
       clipPathUnits="userSpaceOnUse"
       id="clipPath36"><path
         d="m 134.646,574.041 309.174,0 0,127.207 -309.174,0 0,-127.207 z"
         id="path38"
         inkscape:connector-curvature="0" /></clipPath><clipPath
       clipPathUnits="userSpaceOnUse"
       id="clipPath50"><path
         d="m 134.646,574.041 309.174,0 0,127.207 -309.174,0 0,-127.207 z"
         id="path52"
         inkscape:connector-curvature="0" /></clipPath><clipPath
       clipPathUnits="userSpaceOnUse"
       id="clipPath64"><path
         d="m 134.646,574.041 309.174,0 0,127.207 -309.174,0 0,-127.207 z"
         id="path66"
         inkscape:connector-curvature="0" /></clipPath><clipPath
       clipPathUnits="userSpaceOnUse"
       id="clipPath110"><path
         d="m 134.646,574.041 309.174,0 0,127.207 -309.174,0 0,-127.207 z"
         id="path112"
         inkscape:connector-curvature="0" /></clipPath><clipPath
       clipPathUnits="userSpaceOnUse"
       id="clipPath746"><path
         d="m 54.9077,196.019 1169.0923,0 0,179.018 -1169.0923,0 0,-179.018 z"
         id="path748"
         inkscape:connector-curvature="0" /></clipPath><clipPath
       clipPathUnits="userSpaceOnUse"
       id="clipPath750"><path
         d="M 0,612 1224,612 1224,0 0,0 0,612 z"
         id="path752"
         inkscape:connector-curvature="0" /></clipPath><clipPath
       clipPathUnits="userSpaceOnUse"
       id="clipPath110-0"><path
         inkscape:connector-curvature="0"
         d="m 134.646,574.041 309.174,0 0,127.207 -309.174,0 0,-127.207 z"
         id="path112-0" /></clipPath><clipPath
       clipPathUnits="userSpaceOnUse"
       id="clipPath64-8"><path
         inkscape:connector-curvature="0"
         d="m 134.646,574.041 309.174,0 0,127.207 -309.174,0 0,-127.207 z"
         id="path66-9" /></clipPath><clipPath
       clipPathUnits="userSpaceOnUse"
       id="clipPath50-3"><path
         inkscape:connector-curvature="0"
         d="m 134.646,574.041 309.174,0 0,127.207 -309.174,0 0,-127.207 z"
         id="path52-2" /></clipPath><clipPath
       clipPathUnits="userSpaceOnUse"
       id="clipPath36-8"><path
         inkscape:connector-curvature="0"
         d="m 134.646,574.041 309.174,0 0,127.207 -309.174,0 0,-127.207 z"
         id="path38-9" /></clipPath></defs><sodipodi:namedview
     pagecolor="#ffffff"
     bordercolor="#666666"
     borderopacity="1"
     objecttolerance="10"
     gridtolerance="10"
     guidetolerance="10"
     inkscape:pageopacity="0"
     inkscape:pageshadow="2"
     inkscape:window-width="1920"
     inkscape:window-height="1025"
     id="namedview4"
     showgrid="false"
     fit-margin-top="0"
     fit-margin-left="0"
     fit-margin-right="0"
     fit-margin-bottom="0"
     inkscape:zoom="1.7938242"
     inkscape:cx="228.27055"
     inkscape:cy="93.788983"
     inkscape:window-x="-2"
     inkscape:window-y="-3"
     inkscape:window-maximized="1"
     inkscape:current-layer="g10" /><g
     id="g10"
     inkscape:groupmode="layer"
     inkscape:label="joannopoulos__Photonic_crystals"
     transform="matrix(1.25,0,0,-1.25,-30.665912,218.2591)"><g
       id="g28"
       transform="translate(227.75573,128.08429)"><path
         inkscape:connector-curvature="0"
         d="m 0,0 45.92,45.92 0,-80.081 L 0,-80.081 0,0"
         style="fill:#2a8079;fill-opacity:1;fill-rule:nonzero;stroke:none"
         id="path30" /></g><g
       transform="translate(-110.11327,-526.64072)"
       id="g32"><g
         id="g34"
         clip-path="url(#clipPath36-8)"><g
           id="g40"
           transform="translate(337.869,654.72501)"><path
             inkscape:connector-curvature="0"
             d="m 0,0 45.92,45.92 0,-80.081 L 0,-80.081 0,0 z"
             style="fill:none;stroke:#231f20;stroke-width:0.5;stroke-linecap:butt;stroke-linejoin:miter;stroke-miterlimit:3.86400008;stroke-opacity:1;stroke-dasharray:none"
             id="path42" /></g></g></g><path
       inkscape:connector-curvature="0"
       d="m 49.676734,128.08428 178.078996,0 0,-80.081 -178.078996,0 0,80.081 z"
       style="fill:#0daa60;fill-opacity:1;fill-rule:nonzero;stroke:none"
       id="path44" /><g
       transform="translate(-110.11327,-526.64072)"
       id="g46"><g
         id="g48"
         clip-path="url(#clipPath50-3)"><path
           inkscape:connector-curvature="0"
           d="m 159.79,654.725 178.079,0 0,-80.081 -178.079,0 0,80.081 z"
           style="fill:none;stroke:#231f20;stroke-width:0.5;stroke-linecap:butt;stroke-linejoin:miter;stroke-miterlimit:3.86400008;stroke-opacity:1;stroke-dasharray:none"
           id="path54" /></g></g><g
       id="g56"
       transform="translate(49.676724,128.08429)"><path
         inkscape:connector-curvature="0"
         d="m 0,0 178.079,0 45.92,45.92 -178.079,0 L 0,0"
         style="fill:#9ad4bb;fill-opacity:1;fill-rule:nonzero;stroke:none"
         id="path58" /></g><g
       transform="translate(-110.11327,-526.64072)"
       id="g60"><g
         id="g62"
         clip-path="url(#clipPath64-8)"><g
           id="g68"
           transform="translate(159.78999,654.72501)"><path
             inkscape:connector-curvature="0"
             d="m 0,0 178.079,0 45.92,45.92 -178.079,0 L 0,0 z"
             style="fill:none;stroke:#231f20;stroke-width:0.5;stroke-linecap:butt;stroke-linejoin:miter;stroke-miterlimit:3.86400008;stroke-opacity:1;stroke-dasharray:none"
             id="path70" /></g></g></g><g
       id="g72"
       transform="translate(299.71473,93.42028)"><path
         inkscape:connector-curvature="0"
         d="M 0,0 0,30.8"
         style="fill:none;stroke:#231f20;stroke-width:1.12;stroke-linecap:butt;stroke-linejoin:miter;stroke-miterlimit:3.86400008;stroke-opacity:1;stroke-dasharray:none"
         id="path74" /></g><g
       id="g76"
       transform="translate(299.71473,123.54728)"><path
         inkscape:connector-curvature="0"
         d="M 0,0 -4.032,0 0,10.025 4.032,0 0,0"
         style="fill:#231f20;fill-opacity:1;fill-rule:evenodd;stroke:none"
         id="path78" /></g><g
       id="g80"
       transform="translate(299.15573,93.42028)"><path
         inkscape:connector-curvature="0"
         d="M 0,0 25.199,0"
         style="fill:none;stroke:#231f20;stroke-width:1.12;stroke-linecap:butt;stroke-linejoin:miter;stroke-miterlimit:3.86400008;stroke-opacity:1;stroke-dasharray:none"
         id="path82" /></g><g
       id="g84"
       transform="translate(323.68274,93.42028)"><path
         inkscape:connector-curvature="0"
         d="M 0,0 0,4.032 10.024,0 0,-4.033 0,0"
         style="fill:#231f20;fill-opacity:1;fill-rule:evenodd;stroke:none"
         id="path86" /></g><text
       style="font-size:12px"
       y="-72.308311"
       x="288.34671"
       id="text88"
       transform="scale(1,-1)"><tspan
         style="font-size:11.20049953px;font-style:italic;font-variant:normal;writing-mode:lr-tb;fill:#000000;fill-opacity:1;fill-rule:nonzero;stroke:none;font-family:Palatino;-inkscape-font-specification:Palatino-Italic"
         x="288.34671"
         y="-72.308311"
         id="tspan90">x</tspan></text>
<g
       id="g92"
       transform="translate(299.71473,93.42028)"><path
         inkscape:connector-curvature="0"
         d="M 0,0 -17.023,-16.128"
         style="fill:none;stroke:#231f20;stroke-width:1.12;stroke-linecap:butt;stroke-linejoin:miter;stroke-miterlimit:3.86400008;stroke-opacity:1;stroke-dasharray:none"
         id="path94" /></g><g
       id="g96"
       transform="translate(283.19574,77.73928)"><path
         inkscape:connector-curvature="0"
         d="M 0,0 2.689,-2.967 -7.392,-6.888 -2.745,2.913 0,0"
         style="fill:#231f20;fill-opacity:1;fill-rule:evenodd;stroke:none"
         id="path98" /></g><text
       style="font-size:12px"
       y="-115.31881"
       x="290.0517"
       id="text100"
       transform="scale(1,-1)"><tspan
         style="font-size:11.20049953px;font-style:italic;font-variant:normal;writing-mode:lr-tb;fill:#000000;fill-opacity:1;fill-rule:nonzero;stroke:none;font-family:Palatino;-inkscape-font-specification:Palatino-Italic"
         x="290.0517"
         y="-115.31881"
         id="tspan102">z</tspan><tspan
         style="font-size:11.20049953px;font-style:italic;font-variant:normal;writing-mode:lr-tb;fill:#000000;fill-opacity:1;fill-rule:nonzero;stroke:none;font-family:Palatino;-inkscape-font-specification:Palatino-Italic"
         x="313.53918"
         y="-84.024559"
         id="tspan104">y</tspan></text>
<g
       transform="translate(-110.11327,-526.64072)"
       id="g106"><g
         id="g108"
         clip-path="url(#clipPath110-0)"><g
           id="g114"
           transform="translate(173.84599,614.573)"><path
             inkscape:connector-curvature="0"
             d="M 0,0 -39.2,0 M 0,-14.56 l -39.2,0"
             style="fill:none;stroke:#231f20;stroke-width:0.5;stroke-linecap:butt;stroke-linejoin:miter;stroke-miterlimit:3.86400008;stroke-opacity:1;stroke-dasharray:none"
             id="path116" /></g></g></g><g
       id="g118"
       transform="translate(29.012734,84.01228)"><path
         inkscape:connector-curvature="0"
         d="M 0,0 0,-6.888"
         style="fill:none;stroke:#231f20;stroke-width:0.28;stroke-linecap:butt;stroke-linejoin:miter;stroke-miterlimit:3.86400008;stroke-opacity:1;stroke-dasharray:none"
         id="path120" /></g><g
       id="g122"
       transform="translate(29.012734,83.73228)"><path
         inkscape:connector-curvature="0"
         d="M 0,0 -1.68,0 0,4.2 1.68,0 0,0"
         style="fill:#231f20;fill-opacity:1;fill-rule:evenodd;stroke:none"
         id="path124" /></g><g
       id="g126"
       transform="translate(29.012734,77.40329)"><path
         inkscape:connector-curvature="0"
         d="M 0,0 1.68,0 0,-4.2 -1.68,0 0,0"
         style="fill:#231f20;fill-opacity:1;fill-rule:evenodd;stroke:none"
         id="path128" /></g><text
       style="font-size:12px"
       y="-78.04879"
       x="32.392124"
       id="text130"
       transform="scale(1,-1)"><tspan
         style="font-size:12.32040024px;font-style:italic;font-variant:normal;writing-mode:lr-tb;fill:#000000;fill-opacity:1;fill-rule:nonzero;stroke:none;font-family:Palatino;-inkscape-font-specification:Palatino-Italic"
         x="32.392124"
         y="-78.04879"
         id="tspan132">a</tspan></text>
<g
       id="g134"
       transform="translate(227.75573,120.80429)"><path
         inkscape:connector-curvature="0"
         d="m 0,0 45.92,45.92 0,-7.28 L 0,-7.28 0,0"
         style="fill:#445187;fill-opacity:1;fill-rule:nonzero;stroke:none"
         id="path136" /></g><g
       id="g138"
       transform="translate(227.75573,120.80429)"><path
         inkscape:connector-curvature="0"
         d="m 0,0 45.92,45.92 0,-7.28 L 0,-7.28 0,0 z"
         style="fill:none;stroke:#231f20;stroke-width:0.5;stroke-linecap:butt;stroke-linejoin:miter;stroke-miterlimit:3.86400008;stroke-opacity:1;stroke-dasharray:none"
         id="path140" /></g><g
       id="g142"
       transform="translate(227.75573,106.24427)"><path
         inkscape:connector-curvature="0"
         d="m 0,0 45.92,45.92 0,-7.28 L 0,-7.28 0,0"
         style="fill:#445187;fill-opacity:1;fill-rule:nonzero;stroke:none"
         id="path144" /></g><g
       id="g146"
       transform="translate(227.75573,106.24427)"><path
         inkscape:connector-curvature="0"
         d="m 0,0 45.92,45.92 0,-7.28 L 0,-7.28 0,0 z"
         style="fill:none;stroke:#231f20;stroke-width:0.5;stroke-linecap:butt;stroke-linejoin:miter;stroke-miterlimit:3.86400008;stroke-opacity:1;stroke-dasharray:none"
         id="path148" /></g><g
       id="g150"
       transform="translate(227.75573,91.68428)"><path
         inkscape:connector-curvature="0"
         d="m 0,0 45.92,45.92 0,-7.281 L 0,-7.279 0,0"
         style="fill:#445187;fill-opacity:1;fill-rule:nonzero;stroke:none"
         id="path152" /></g><g
       id="g154"
       transform="translate(227.75573,91.68428)"><path
         inkscape:connector-curvature="0"
         d="m 0,0 45.92,45.92 0,-7.281 L 0,-7.279 0,0 z"
         style="fill:none;stroke:#231f20;stroke-width:0.5;stroke-linecap:butt;stroke-linejoin:miter;stroke-miterlimit:3.86400008;stroke-opacity:1;stroke-dasharray:none"
         id="path156" /></g><g
       id="g158"
       transform="translate(227.75573,77.12428)"><path
         inkscape:connector-curvature="0"
         d="m 0,0 45.92,45.92 0,-7.28 L 0,-7.281 0,0"
         style="fill:#445187;fill-opacity:1;fill-rule:nonzero;stroke:none"
         id="path160" /></g><g
       id="g162"
       transform="translate(227.75573,77.12428)"><path
         inkscape:connector-curvature="0"
         d="m 0,0 45.92,45.92 0,-7.28 L 0,-7.281 0,0 z"
         style="fill:none;stroke:#231f20;stroke-width:0.5;stroke-linecap:butt;stroke-linejoin:miter;stroke-miterlimit:3.86400008;stroke-opacity:1;stroke-dasharray:none"
         id="path164" /></g><g
       id="g166"
       transform="translate(227.75573,62.56527)"><path
         inkscape:connector-curvature="0"
         d="m 0,0 45.92,45.918 0,-7.279 L 0,-7.281 0,0"
         style="fill:#445187;fill-opacity:1;fill-rule:nonzero;stroke:none"
         id="path168" /></g><g
       id="g170"
       transform="translate(227.75573,62.56527)"><path
         inkscape:connector-curvature="0"
         d="m 0,0 45.92,45.918 0,-7.279 L 0,-7.281 0,0 z"
         style="fill:none;stroke:#231f20;stroke-width:0.5;stroke-linecap:butt;stroke-linejoin:miter;stroke-miterlimit:3.86400008;stroke-opacity:1;stroke-dasharray:none"
         id="path172" /></g><path
       inkscape:connector-curvature="0"
       d="m 49.676734,120.80428 178.078996,0 0,-7.28 -178.078996,0 0,7.28 z"
       style="fill:#277fc2;fill-opacity:1;fill-rule:nonzero;stroke:none"
       id="path174" /><path
       inkscape:connector-curvature="0"
       d="m 49.676734,120.80428 178.078996,0 0,-7.28 -178.078996,0 0,7.28 z"
       style="fill:none;stroke:#231f20;stroke-width:0.5;stroke-linecap:butt;stroke-linejoin:miter;stroke-miterlimit:3.86400008;stroke-opacity:1;stroke-dasharray:none"
       id="path176" /><path
       inkscape:connector-curvature="0"
       d="m 49.676734,106.24428 178.078996,0 0,-7.279 -178.078996,0 0,7.279 z"
       style="fill:#277fc2;fill-opacity:1;fill-rule:nonzero;stroke:none"
       id="path178" /><path
       inkscape:connector-curvature="0"
       d="m 49.676734,106.24428 178.078996,0 0,-7.279 -178.078996,0 0,7.279 z"
       style="fill:none;stroke:#231f20;stroke-width:0.5;stroke-linecap:butt;stroke-linejoin:miter;stroke-miterlimit:3.86400008;stroke-opacity:1;stroke-dasharray:none"
       id="path180" /><path
       inkscape:connector-curvature="0"
       d="m 49.676734,91.68428 178.078996,0 0,-7.279 -178.078996,0 0,7.279 z"
       style="fill:#277fc2;fill-opacity:1;fill-rule:nonzero;stroke:none"
       id="path182" /><path
       inkscape:connector-curvature="0"
       d="m 49.676734,91.68428 178.078996,0 0,-7.279 -178.078996,0 0,7.279 z"
       style="fill:none;stroke:#231f20;stroke-width:0.5;stroke-linecap:butt;stroke-linejoin:miter;stroke-miterlimit:3.86400008;stroke-opacity:1;stroke-dasharray:none"
       id="path184" /><path
       inkscape:connector-curvature="0"
       d="m 49.676734,77.12428 178.078996,0 0,-7.281 -178.078996,0 0,7.281 z"
       style="fill:#277fc2;fill-opacity:1;fill-rule:nonzero;stroke:none"
       id="path186" /><path
       inkscape:connector-curvature="0"
       d="m 49.676734,77.12428 178.078996,0 0,-7.281 -178.078996,0 0,7.281 z"
       style="fill:none;stroke:#231f20;stroke-width:0.5;stroke-linecap:butt;stroke-linejoin:miter;stroke-miterlimit:3.86400008;stroke-opacity:1;stroke-dasharray:none"
       id="path188" /><path
       inkscape:connector-curvature="0"
       d="m 49.676734,62.56528 178.078996,0 0,-7.281 -178.078996,0 0,7.281 z"
       style="fill:#277fc2;fill-opacity:1;fill-rule:nonzero;stroke:none"
       id="path190" /><path
       inkscape:connector-curvature="0"
       d="m 49.676734,62.56528 178.078996,0 0,-7.281 -178.078996,0 0,7.281 z"
       style="fill:none;stroke:#231f20;stroke-width:0.5;stroke-linecap:butt;stroke-linejoin:miter;stroke-miterlimit:3.86400008;stroke-opacity:1;stroke-dasharray:none"
       id="path192" /></g></svg>