<?xml version="1.0" encoding="UTF-8" standalone="no"?>
<svg width="70.5556mm" height="70.5556mm"
 viewBox="0 0 200 200"
 xmlns="http://www.w3.org/2000/svg" xmlns:xlink="http://www.w3.org/1999/xlink"  version="1.2" baseProfile="tiny">
<title>Qt Svg Document</title>
<desc>Generated with Qt</desc>
<defs>
</defs>
<g fill="none" stroke="black" stroke-width="1" fill-rule="evenodd" stroke-linecap="square" stroke-linejoin="bevel" >

<g fill="none" stroke="#000000" stroke-opacity="1" stroke-width="3" stroke-linecap="square" stroke-linejoin="bevel" transform="matrix(1,0,0,1,0,0)"
font-family="Sans Serif" font-size="9" font-weight="400" font-style="normal" 
>
<path vector-effect="none" fill-rule="evenodd" d="M200,100 C200,155.228 155.228,200 100,200 C44.7715,200 0,155.228 0,100 C0,44.7715 44.7715,0 100,0 C155.228,0 200,44.7715 200,100 "/>
</g>

<g fill="none" stroke="#000000" stroke-opacity="1" stroke-width="8" stroke-linecap="square" stroke-linejoin="bevel" transform="matrix(1,0,0,1,0,0)"
font-family="Sans Serif" font-size="9" font-weight="400" font-style="normal" 
>
<path vector-effect="none" fill-rule="evenodd" d="M102,100 C102,101.105 101.105,102 100,102 C98.8954,102 98,101.105 98,100 C98,98.8954 98.8954,98 100,98 C101.105,98 102,98.8954 102,100 "/>
</g>

<g fill="none" stroke="#000000" stroke-opacity="1" stroke-width="1" stroke-linecap="square" stroke-linejoin="bevel" transform="matrix(1,0,0,1,0,0)"
font-family="Sans Serif" font-size="9" font-weight="400" font-style="normal" 
>
<polyline fill="none" vector-effect="non-scaling-stroke" points="102,100 127,100 " />
<polyline fill="none" vector-effect="non-scaling-stroke" points="157,103 182,103 " />
<polyline fill="none" vector-effect="non-scaling-stroke" points="152,106 177,110 " />
<polyline fill="none" vector-effect="non-scaling-stroke" points="166,112 191,115 " />
<polyline fill="none" vector-effect="non-scaling-stroke" points="163,116 187,123 " />
<polyline fill="none" vector-effect="non-scaling-stroke" points="122,107 146,116 " />
<polyline fill="none" vector-effect="non-scaling-stroke" points="169,127 192,138 " />
<polyline fill="none" vector-effect="non-scaling-stroke" points="119,108 141,118 " />
<polyline fill="none" vector-effect="non-scaling-stroke" points="103,101 124,114 " />
<polyline fill="none" vector-effect="non-scaling-stroke" points="133,121 154,135 " />
<polyline fill="none" vector-effect="non-scaling-stroke" points="132,123 153,137 " />
<polyline fill="none" vector-effect="non-scaling-stroke" points="149,140 167,157 " />
<polyline fill="none" vector-effect="non-scaling-stroke" points="148,145 166,162 " />
<polyline fill="none" vector-effect="non-scaling-stroke" points="110,111 128,129 " />
<polyline fill="none" vector-effect="non-scaling-stroke" points="142,151 158,170 " />
<polyline fill="none" vector-effect="non-scaling-stroke" points="133,146 146,167 " />
<polyline fill="none" vector-effect="non-scaling-stroke" points="133,152 148,172 " />
<polyline fill="none" vector-effect="non-scaling-stroke" points="118,132 129,155 " />
<polyline fill="none" vector-effect="non-scaling-stroke" points="100,101 110,124 " />
<polyline fill="none" vector-effect="non-scaling-stroke" points="116,141 126,164 " />
<polyline fill="none" vector-effect="non-scaling-stroke" points="110,132 117,156 " />
<polyline fill="none" vector-effect="non-scaling-stroke" points="105,120 112,144 " />
<polyline fill="none" vector-effect="non-scaling-stroke" points="112,163 117,187 " />
<polyline fill="none" vector-effect="non-scaling-stroke" points="107,158 112,183 " />
<polyline fill="none" vector-effect="non-scaling-stroke" points="102,139 105,164 " />
<polyline fill="none" vector-effect="non-scaling-stroke" points="100,106 99,131 " />
<polyline fill="none" vector-effect="non-scaling-stroke" points="95,170 96,195 " />
<polyline fill="none" vector-effect="non-scaling-stroke" points="91,169 90,194 " />
<polyline fill="none" vector-effect="non-scaling-stroke" points="87,165 81,189 " />
<polyline fill="none" vector-effect="non-scaling-stroke" points="97,109 90,133 " />
<polyline fill="none" vector-effect="non-scaling-stroke" points="80,159 74,183 " />
<polyline fill="none" vector-effect="non-scaling-stroke" points="82,145 73,168 " />
<polyline fill="none" vector-effect="non-scaling-stroke" points="94,111 84,133 " />
<polyline fill="none" vector-effect="non-scaling-stroke" points="81,132 70,155 " />
<polyline fill="none" vector-effect="non-scaling-stroke" points="66,152 54,174 " />
<polyline fill="none" vector-effect="non-scaling-stroke" points="55,160 40,180 " />
<polyline fill="none" vector-effect="non-scaling-stroke" points="53,156 35,173 " />
<polyline fill="none" vector-effect="non-scaling-stroke" points="90,109 73,127 " />
<polyline fill="none" vector-effect="non-scaling-stroke" points="87,112 69,130 " />
<polyline fill="none" vector-effect="non-scaling-stroke" points="49,141 30,158 " />
<polyline fill="none" vector-effect="non-scaling-stroke" points="39,143 20,160 " />
<polyline fill="none" vector-effect="non-scaling-stroke" points="63,122 41,134 " />
<polyline fill="none" vector-effect="non-scaling-stroke" points="34,136 13,149 " />
<polyline fill="none" vector-effect="non-scaling-stroke" points="49,123 26,133 " />
<polyline fill="none" vector-effect="non-scaling-stroke" points="65,113 42,122 " />
<polyline fill="none" vector-effect="non-scaling-stroke" points="49,116 25,125 " />
<polyline fill="none" vector-effect="non-scaling-stroke" points="40,115 15,119 " />
<polyline fill="none" vector-effect="non-scaling-stroke" points="34,112 10,119 " />
<polyline fill="none" vector-effect="non-scaling-stroke" points="26,109 1,110 " />
<polyline fill="none" vector-effect="non-scaling-stroke" points="35,104 10,103 " />
<polyline fill="none" vector-effect="non-scaling-stroke" points="60,100 35,101 " />
<polyline fill="none" vector-effect="non-scaling-stroke" points="84,99 59,96 " />
<polyline fill="none" vector-effect="non-scaling-stroke" points="51,93 26,92 " />
<polyline fill="none" vector-effect="non-scaling-stroke" points="86,97 61,93 " />
<polyline fill="none" vector-effect="non-scaling-stroke" points="46,86 22,82 " />
<polyline fill="none" vector-effect="non-scaling-stroke" points="31,77 6,72 " />
<polyline fill="none" vector-effect="non-scaling-stroke" points="47,79 24,67 " />
<polyline fill="none" vector-effect="non-scaling-stroke" points="76,88 54,77 " />
<polyline fill="none" vector-effect="non-scaling-stroke" points="36,65 14,52 " />
<polyline fill="none" vector-effect="non-scaling-stroke" points="66,78 44,66 " />
<polyline fill="none" vector-effect="non-scaling-stroke" points="43,59 24,42 " />
<polyline fill="none" vector-effect="non-scaling-stroke" points="46,55 26,41 " />
<polyline fill="none" vector-effect="non-scaling-stroke" points="90,90 72,73 " />
<polyline fill="none" vector-effect="non-scaling-stroke" points="77,75 60,57 " />
<polyline fill="none" vector-effect="non-scaling-stroke" points="53,43 37,23 " />
<polyline fill="none" vector-effect="non-scaling-stroke" points="81,74 65,54 " />
<polyline fill="none" vector-effect="non-scaling-stroke" points="98,97 85,75 " />
<polyline fill="none" vector-effect="non-scaling-stroke" points="98,97 86,75 " />
<polyline fill="none" vector-effect="non-scaling-stroke" points="73,44 63,21 " />
<polyline fill="none" vector-effect="non-scaling-stroke" points="74,34 67,10 " />
<polyline fill="none" vector-effect="non-scaling-stroke" points="83,49 76,25 " />
<polyline fill="none" vector-effect="non-scaling-stroke" points="87,52 81,27 " />
<polyline fill="none" vector-effect="non-scaling-stroke" points="97,87 93,62 " />
<polyline fill="none" vector-effect="non-scaling-stroke" points="91,32 89,7 " />
<polyline fill="none" vector-effect="non-scaling-stroke" points="98,73 95,48 " />
<polyline fill="none" vector-effect="non-scaling-stroke" points="99,54 99,29 " />
<polyline fill="none" vector-effect="non-scaling-stroke" points="103,47 106,22 " />
<polyline fill="none" vector-effect="non-scaling-stroke" points="109,26 115,1 " />
<polyline fill="none" vector-effect="non-scaling-stroke" points="113,31 116,6 " />
<polyline fill="none" vector-effect="non-scaling-stroke" points="100,96 106,72 " />
<polyline fill="none" vector-effect="non-scaling-stroke" points="123,28 129,4 " />
<polyline fill="none" vector-effect="non-scaling-stroke" points="126,32 138,10 " />
<polyline fill="none" vector-effect="non-scaling-stroke" points="119,58 129,35 " />
<polyline fill="none" vector-effect="non-scaling-stroke" points="133,39 145,17 " />
<polyline fill="none" vector-effect="non-scaling-stroke" points="139,37 151,14 " />
<polyline fill="none" vector-effect="non-scaling-stroke" points="134,52 148,30 " />
<polyline fill="none" vector-effect="non-scaling-stroke" points="144,46 161,27 " />
<polyline fill="none" vector-effect="non-scaling-stroke" points="124,73 141,54 " />
<polyline fill="none" vector-effect="non-scaling-stroke" points="142,60 159,41 " />
<polyline fill="none" vector-effect="non-scaling-stroke" points="151,57 170,40 " />
<polyline fill="none" vector-effect="non-scaling-stroke" points="141,69 160,53 " />
<polyline fill="none" vector-effect="non-scaling-stroke" points="155,64 176,51 " />
<polyline fill="none" vector-effect="non-scaling-stroke" points="153,70 174,57 " />
<polyline fill="none" vector-effect="non-scaling-stroke" points="151,75 174,64 " />
<polyline fill="none" vector-effect="non-scaling-stroke" points="121,91 144,81 " />
<polyline fill="none" vector-effect="non-scaling-stroke" points="167,78 191,69 " />
<polyline fill="none" vector-effect="non-scaling-stroke" points="163,83 187,76 " />
<polyline fill="none" vector-effect="non-scaling-stroke" points="140,92 165,89 " />
<polyline fill="none" vector-effect="non-scaling-stroke" points="160,92 184,88 " />
<polyline fill="none" vector-effect="non-scaling-stroke" points="166,95 191,91 " />
</g>
</g>
</svg>
